<?xml version="1.0" encoding="UTF-8"?>
<svg width="190px" height="50px" viewBox="0 0 190 50" version="1.1" xmlns="http://www.w3.org/2000/svg" xmlns:xlink="http://www.w3.org/1999/xlink">
    <!-- Generator: Sketch 62 (91390) - https://sketch.com -->
    <title>Revitalised logo</title>
    <desc>Created with Sketch.</desc>
    <defs>
        <linearGradient x1="49.5882601%" y1="99.5882601%" x2="49.5882601%" y2="0.411739865%" id="linearGradient-1">
            <stop stop-color="#FFC0E4" offset="0%"></stop>
            <stop stop-color="#C7E4FF" offset="50%"></stop>
            <stop stop-color="#BCF5D5" offset="100%"></stop>
        </linearGradient>
        <polygon id="path-2" points="0 49.875467 189.477673 49.875467 189.477673 0.55763543 0 0.55763543"></polygon>
    </defs>
    <g  stroke="none" stroke-width="1" fill="none" fill-rule="evenodd">
        <g class="Desktop-/-Registration---Welcome" transform="translate(-40.000000, -15.000000)">
            <g class="Revitalised-logo" transform="translate(40.000000, 15.000000)">
                <path d="M0,50 L48.7837838,50 L48.7837838,0.641025641 L0,0.641025641 L0,50 Z M1.11141649,48.8740926 L47.6709969,48.8740926 L47.6709969,1.76554641 L1.11141649,1.76554641 L1.11141649,48.8740926 Z" id="Fill-1" fill="#006C60"></path>
                <polygon id="Fill-2" fill="#66BCAF" points="4.49324324 45.5128205 44.9324324 45.5128205 44.9324324 5.12820513 4.49324324 5.12820513"></polygon>
                <g class="Group-47">
                    <path d="M21.2191309,19.2632215 C21.2191309,18.9889064 21.4554218,18.7526907 21.7290218,18.7526907 L22.2009127,18.7526907 C22.4365127,18.7526907 22.6327309,18.9092442 22.6721127,19.1856375 L22.8282582,20.7975848 C23.2200036,20.2468766 24.7911309,18.358536 27.7344036,18.358536 C28.9890945,18.358536 29.8527309,18.7125132 30.1664036,18.8302748 C30.52084,18.948729 30.7156764,19.2237368 30.5982218,19.538922 L30.2845491,20.325846 C30.1664036,20.6015465 29.9308036,20.6403386 29.6572036,20.5225771 C29.4609855,20.4436076 28.6754218,20.0508383 27.6169491,20.0508383 C24.55484,20.0508383 23.0645491,22.5293719 22.9457127,22.7655876 L22.9457127,33.9785624 C22.9457127,34.293055 22.7881855,34.489786 22.4365127,34.489786 L21.6509491,34.489786 C21.3773491,34.489786 21.2191309,34.2549556 21.2191309,33.9785624 L21.2191309,19.2632215 Z" id="Fill-3" fill="#FEFEFE"></path>
                    <path d="M62.3276,13.1099743 C62.3276,12.9215559 62.4885818,12.7587679 62.6778909,12.7587679 L63.0012364,12.7587679 C63.1622182,12.7587679 63.2962545,12.8668314 63.3232,13.0559426 L63.4323636,14.1635936 C63.7004364,13.7853713 64.7782545,12.4893018 66.7977818,12.4893018 C67.6593455,12.4893018 68.2507636,12.731752 68.4670182,12.8127997 C68.7081455,12.8938473 68.8442545,13.0822657 68.7620364,13.2983927 L68.5471636,13.8387103 C68.4670182,14.0278215 68.3046545,14.0548373 68.1160364,13.9737897 C67.9826909,13.9197579 67.4430909,13.6495992 66.7169455,13.6495992 C64.6165818,13.6495992 63.5926545,15.350214 63.5132,15.5123093 L63.5132,23.2062928 C63.5132,23.4217271 63.4054182,23.5568065 63.1622182,23.5568065 L62.6246909,23.5568065 C62.4346909,23.5568065 62.3276,23.3947112 62.3276,23.2062928 L62.3276,13.1099743 Z" id="Fill-5" fill="#006C60"></path>
                    <path d="M81.8734182,17.5105145 C81.8734182,15.4046614 80.6076727,13.5689672 78.1846545,13.5689672 C75.8148364,13.5689672 74.2278182,15.2965979 74.0924,17.5105145 L81.8734182,17.5105145 Z M78.1846545,12.4890248 C81.0118545,12.4890248 83.0590182,14.5678619 83.0590182,17.4294668 C83.0590182,17.8610282 83.0590182,18.4817007 82.6548364,18.4817007 L74.0647636,18.4817007 C74.1725455,20.8036807 75.8424727,22.7474385 78.2654909,22.7474385 C79.6936,22.7474385 80.7962909,22.1807978 81.4429818,21.7485437 C81.6861818,21.5864485 81.7932727,21.5594326 81.9273091,21.7485437 L82.1974545,22.126766 C82.2776,22.2341368 82.2506545,22.3962321 82.0889818,22.5583274 C81.5500727,23.0979522 79.8538909,23.8273809 78.1846545,23.8273809 C74.9000727,23.8273809 72.8805455,21.2899665 72.8805455,18.131187 C72.8805455,15.0541477 74.9000727,12.4890248 78.1846545,12.4890248 L78.1846545,12.4890248 Z" id="Fill-7" fill="#006C60"></path>
                    <path d="M87.3372655,13.1641446 C87.2308655,12.9480176 87.25712,12.7595992 87.4989382,12.7595992 L88.0924291,12.7595992 C88.2257745,12.7595992 88.3605018,12.8136309 88.4420291,13.0020493 L92.3449745,21.9103619 L92.3726109,21.9103619 L96.3045745,13.0020493 C96.38472,12.8136309 96.5187564,12.7595992 96.6527927,12.7595992 L97.2462836,12.7595992 C97.4881018,12.7595992 97.5143564,12.9480176 97.4072655,13.1641446 L92.7222109,23.5839609 C92.6420655,23.7453635 92.5335927,23.8271038 92.3988655,23.8271038 L92.2917745,23.8271038 C92.1301018,23.8271038 92.0492655,23.7723794 91.9684291,23.5839609 L87.3372655,13.1641446 Z" id="Fill-9" fill="#006C60"></path>
                    <path d="M102.602004,13.1099743 C102.602004,12.9215559 102.762985,12.7587679 102.952985,12.7587679 L103.436622,12.7587679 C103.624549,12.7587679 103.787604,12.9215559 103.787604,13.1099743 L103.787604,23.2062928 C103.787604,23.4217271 103.679822,23.5568065 103.436622,23.5568065 L102.899095,23.5568065 C102.709095,23.5568065 102.602004,23.3947112 102.602004,23.2062928 L102.602004,13.1099743 Z M102.278658,6.57698085 C102.278658,6.06437189 102.68284,5.63211784 103.194113,5.63211784 C103.706767,5.63211784 104.110949,6.06437189 104.110949,6.57698085 C104.110949,7.06326666 103.706767,7.46781211 103.194113,7.46781211 C102.68284,7.46781211 102.278658,7.06326666 102.278658,6.57698085 L102.278658,6.57698085 Z" id="Fill-11" fill="#006C60"></path>
                    <path d="M111.028538,13.8121793 L109.762793,13.8121793 C109.493338,13.8121793 109.439447,13.6770999 109.439447,13.4609729 L109.439447,13.0294116 C109.439447,12.8403004 109.574865,12.7585601 109.762793,12.7585601 L111.028538,12.7585601 L111.028538,9.81590753 C111.028538,9.60047323 111.18952,9.46608655 111.37952,9.46608655 L111.836211,9.43907067 C112.024138,9.43907067 112.187193,9.60047323 112.187193,9.78889166 L112.187193,12.7585601 L115.929847,12.7585601 C116.144029,12.7585601 116.279447,12.9213481 116.279447,13.1097665 L116.279447,13.4609729 C116.279447,13.6770999 116.144029,13.8121793 115.929847,13.8121793 L112.187193,13.8121793 L112.187193,20.6956865 C112.187193,21.96474 112.320538,22.6657674 113.586284,22.6657674 C114.527993,22.6657674 115.685956,22.1538512 116.036247,21.9370314 C116.279447,21.8026448 116.387229,21.9100156 116.467375,22.0457877 L116.656684,22.3699782 C116.763775,22.5583966 116.73752,22.7197992 116.575156,22.8285554 C116.170975,23.1513605 114.986756,23.8274502 113.452247,23.8274502 C111.216465,23.8274502 111.028538,22.5043649 111.028538,20.7767341 L111.028538,13.8121793 Z" id="Fill-13" fill="#006C60"></path>
                    <path d="M124.920302,22.7741773 C126.562593,22.7741773 127.98932,21.7759752 128.501975,21.0998856 L128.501975,18.1309099 C128.151684,17.9688146 127.073865,17.5642691 125.781865,17.5642691 C123.735393,17.5642691 122.362556,18.6171957 122.362556,20.209747 C122.362556,21.7759752 123.438993,22.7741773 124.920302,22.7741773 M125.781865,16.5923903 C127.019975,16.5923903 128.204884,16.9699198 128.501975,17.0779833 C128.501975,14.7033569 128.258775,13.5146583 126.132156,13.5146583 C124.355829,13.5146583 123.143975,14.1623467 122.900775,14.2447797 C122.686593,14.3244419 122.550484,14.2163784 122.496593,14.02796 L122.362556,13.7037695 C122.282411,13.4613193 122.389502,13.352563 122.523538,13.2985313 C122.604375,13.2451922 123.978593,12.4887477 126.212302,12.4887477 C129.497575,12.4887477 129.631611,14.4595213 129.631611,17.2137554 L129.631611,23.2064314 C129.631611,23.3948498 129.470629,23.556945 129.28132,23.556945 L128.960047,23.556945 C128.770047,23.556945 128.689902,23.4495743 128.636011,23.2597704 L128.52892,22.2878915 C127.828338,22.9355799 126.509393,23.8277965 124.786265,23.8277965 C122.792993,23.8277965 121.257793,22.4499868 121.257793,20.2367629 C121.257793,18.1579257 122.954665,16.5923903 125.781865,16.5923903" id="Fill-15" fill="#006C60"></path>
                    <path d="M136.307451,5.01116828 C136.307451,4.82344256 136.469124,4.66065458 136.658433,4.66065458 L137.14276,4.66065458 C137.329996,4.66065458 137.493051,4.82344256 137.493051,5.01116828 L137.493051,23.2067084 C137.493051,23.4221427 137.38596,23.5565294 137.14276,23.5565294 L136.604542,23.5565294 C136.415233,23.5565294 136.307451,23.3951269 136.307451,23.2067084 L136.307451,5.01116828 Z" id="Fill-17" fill="#006C60"></path>
                    <path d="M144.276535,13.1099743 C144.276535,12.9215559 144.437516,12.7587679 144.627516,12.7587679 L145.111153,12.7587679 C145.29908,12.7587679 145.460753,12.9215559 145.460753,13.1099743 L145.460753,23.2062928 C145.460753,23.4217271 145.354353,23.5568065 145.111153,23.5568065 L144.573625,23.5568065 C144.384316,23.5568065 144.276535,23.3947112 144.276535,23.2062928 L144.276535,13.1099743 Z M143.953189,6.57698085 C143.953189,6.06437189 144.35668,5.63211784 144.868644,5.63211784 C145.381298,5.63211784 145.78548,6.06437189 145.78548,6.57698085 C145.78548,7.06326666 145.381298,7.46781211 144.868644,7.46781211 C144.35668,7.46781211 143.953189,7.06326666 143.953189,6.57698085 L143.953189,6.57698085 Z" id="Fill-19" fill="#006C60"></path>
                    <path d="M151.625527,22.2343446 L151.896364,21.8020906 C151.976509,21.6683966 152.191382,21.6136722 152.380691,21.7750747 C152.648764,21.9912017 153.752836,22.8280012 155.261782,22.8280012 C156.794909,22.8280012 157.845782,21.9641859 157.845782,20.9112593 C157.845782,19.6692217 156.633927,19.1573054 154.830655,18.4819085 C152.918218,17.8065115 151.519127,16.969712 151.519127,15.296113 C151.519127,14.1094925 152.568618,12.4899253 155.045527,12.4899253 C156.472945,12.4899253 157.549382,13.0018415 158.088291,13.3530479 C158.249964,13.4604187 158.303164,13.6765458 158.196073,13.8656569 L158.033709,14.1635243 C157.925927,14.3519427 157.711745,14.4052818 157.522436,14.2972182 C157.281309,14.1365084 156.2028,13.5421591 155.045527,13.5421591 C153.348655,13.5421591 152.730982,14.5417466 152.730982,15.2690971 C152.730982,16.3490395 153.698945,16.8623412 155.288727,17.4289819 C157.307564,18.1847338 159.084582,18.859438 159.084582,20.8309044 C159.084582,22.4504717 157.414655,23.826896 155.261782,23.826896 C153.430182,23.826896 152.3268,23.0711441 151.733309,22.6118742 C151.625527,22.5315193 151.546073,22.369424 151.625527,22.2343446" id="Fill-21" fill="#006C60"></path>
                    <path d="M173.11052,17.5105145 C173.11052,15.4046614 171.844775,13.5689672 169.421756,13.5689672 C167.051938,13.5689672 165.46492,15.2965979 165.328811,17.5105145 L173.11052,17.5105145 Z M169.421756,12.4890248 C172.248956,12.4890248 174.29612,14.5678619 174.29612,17.4294668 C174.29612,17.8610282 174.29612,18.4817007 173.891247,18.4817007 L165.301865,18.4817007 C165.409647,20.8036807 167.079575,22.7474385 169.502593,22.7474385 C170.930011,22.7474385 172.032702,22.1807978 172.679393,21.7485437 C172.922593,21.5864485 173.030375,21.5594326 173.16372,21.7485437 L173.434556,22.126766 C173.514011,22.2341368 173.487756,22.3962321 173.326084,22.5583274 C172.787175,23.0979522 171.090993,23.8273809 169.421756,23.8273809 C166.136484,23.8273809 164.116956,21.2899665 164.116956,18.131187 C164.116956,15.0541477 166.136484,12.4890248 169.421756,12.4890248 L169.421756,12.4890248 Z" id="Fill-23" fill="#006C60"></path>
                    <path d="M184.443709,22.7470922 C186.787273,22.7470922 187.943855,20.9384138 187.999127,20.8303502 L187.999127,14.7836426 C187.999127,14.7836426 186.760327,13.6496684 184.794691,13.6496684 C182.317091,13.6496684 180.567709,15.5934262 180.567709,18.1578565 C180.567709,20.6689477 182.183055,22.7470922 184.443709,22.7470922 M184.6876,12.4886784 C186.732691,12.4886784 187.999127,13.5686208 187.999127,13.5686208 L187.999127,5.01082192 C187.999127,4.82240349 188.132473,4.66100093 188.347345,4.66100093 L188.833745,4.66100093 C188.994036,4.66100093 189.155709,4.82240349 189.155709,5.01082192 L189.155709,23.2063621 C189.155709,23.3954732 188.994036,23.5568758 188.805418,23.5568758 L188.537345,23.5568758 C188.321091,23.5568758 188.186364,23.4488123 188.159418,23.2063621 L188.079273,22.2608064 C187.755927,22.6120128 186.436982,23.8277273 184.364255,23.8277273 C181.562618,23.8277273 179.3828,21.3173288 179.3828,18.1578565 C179.3828,14.9727537 181.616509,12.4886784 184.6876,12.4886784" id="Fill-25" fill="#006C60"></path>
                    <path d="M66.5371018,41.6986613 L65.3480473,38.7629359 L65.3300836,38.7629359 L64.1230655,41.6986613 L66.5371018,41.6986613 Z M64.9880836,37.6435087 L65.7722655,37.6435087 L68.5020473,44.0386519 L67.4926291,44.0386519 L66.8528473,42.4578767 L63.8163018,42.4578767 L63.1855018,44.0386519 L62.1760836,44.0386519 L64.9880836,37.6435087 Z" id="Fill-27" fill="#929494"></path>
                    <polygon id="Fill-29" fill="#929494" points="75.2024836 37.6432316 76.4910291 37.6432316 78.5188473 42.4853082 78.5547745 42.4853082 80.5639382 37.6432316 81.8517927 37.6432316 81.8517927 44.0383748 80.9860836 44.0383748 80.9860836 38.7820548 80.9695018 38.7820548 78.8152473 44.0383748 78.23972 44.0383748 76.0847745 38.7820548 76.0675018 38.7820548 76.0675018 44.0383748 75.2024836 44.0383748"></polygon>
                    <path d="M88.7366327,41.6986613 L87.5468873,38.7629359 L87.5289236,38.7629359 L86.3225964,41.6986613 L88.7366327,41.6986613 Z M87.1876145,37.6435087 L87.9711055,37.6435087 L90.7008873,44.0386519 L89.69216,44.0386519 L89.0516873,42.4578767 L86.0165236,42.4578767 L85.3843418,44.0386519 L84.3756145,44.0386519 L87.1876145,37.6435087 Z" id="Fill-31" fill="#929494"></path>
                    <polygon id="Fill-33" fill="#929494" points="95.15048 40.6785694 93.0058982 37.6430931 94.1148073 37.6430931 95.7716073 40.1008453 97.4118255 37.6430931 98.4937891 37.6430931 96.3678618 40.6688714 98.7093527 44.038929 97.57488 44.038929 95.7453527 41.2659916 93.9075345 44.038929 92.8345527 44.038929"></polygon>
                    <mask id="mask-3" fill="white">
                        <use xlink:href="#path-2"></use>
                    </mask>
                    <g class="Clip-36"></g>
                    <polygon id="Fill-35" fill="#929494" mask="url(#mask-3)" points="101.244436 44.0386519 102.109455 44.0386519 102.109455 37.642816 101.244436 37.642816"></polygon>
                    <polygon id="Fill-37" fill="#929494" mask="url(#mask-3)" points="105.371029 37.6432316 106.659575 37.6432316 108.687393 42.4853082 108.724011 42.4853082 110.732484 37.6432316 112.020338 37.6432316 112.020338 44.0383748 111.15532 44.0383748 111.15532 38.7820548 111.138738 38.7820548 108.984484 44.0383748 108.408265 44.0383748 106.25332 38.7820548 106.236047 38.7820548 106.236047 44.0383748 105.371029 44.0383748"></polygon>
                    <path d="M116.093662,37.6432316 L116.093662,41.5639975 C116.093662,42.3585414 116.489553,43.3886083 117.697262,43.3886083 C118.903589,43.3886083 119.301553,42.3585414 119.301553,41.5639975 L119.301553,37.6432316 L120.166571,37.6432316 L120.166571,41.6983842 C120.166571,43.1807939 119.09428,44.2018555 117.697262,44.2018555 C116.300935,44.2018555 115.228644,43.1807939 115.228644,41.6983842 L115.228644,37.6432316 L116.093662,37.6432316 Z" id="Fill-38" fill="#929494" mask="url(#mask-3)"></path>
                    <path d="M123.537793,42.7019201 C123.843865,43.1715808 124.375175,43.3884005 124.889211,43.3884005 C125.456447,43.3884005 126.159793,43.0268034 126.159793,42.3223124 C126.159793,40.8496007 123.014775,41.7625988 123.014775,39.2688255 C123.014775,38.5186153 123.646265,37.4802358 125.17732,37.4802358 C125.870993,37.4802358 126.539102,37.6250132 127.015829,38.2124354 L126.313865,38.8531966 C126.096229,38.5186153 125.674084,38.293483 125.17732,38.293483 C124.222484,38.293483 123.934375,38.8712072 123.934375,39.2688255 C123.934375,40.8856219 127.078702,39.9192847 127.078702,42.2239469 C127.078702,43.4604429 126.087247,44.2016477 124.862265,44.2016477 C124.042156,44.2016477 123.260047,43.9210982 122.826847,43.3156655 L123.537793,42.7019201 Z" id="Fill-39" fill="#929494" mask="url(#mask-3)"></path>
                    <path d="M138.735098,39.025267 C138.375135,38.5549136 137.779571,38.2930674 137.194371,38.2930674 C135.761425,38.2930674 134.81488,39.4408959 134.81488,40.895597 C134.81488,42.2415419 135.706844,43.3886776 137.194371,43.3886776 C137.92328,43.3886776 138.483607,43.0631017 138.860844,42.530404 L139.589753,43.0804195 C139.401825,43.3429584 138.634916,44.2019248 137.175716,44.2019248 C135.149971,44.2019248 133.895971,42.5033881 133.895971,40.895597 C133.895971,38.9081982 135.257753,37.4812056 137.221316,37.4812056 C138.058698,37.4812056 138.942371,37.7970836 139.455025,38.4745587 L138.735098,39.025267 Z" id="Fill-40" fill="#929494" mask="url(#mask-3)"></path>
                    <path d="M147.447669,40.8409418 C147.447669,39.4409651 146.502505,38.2931367 145.042615,38.2931367 C143.582724,38.2931367 142.636178,39.4409651 142.636178,40.8409418 C142.636178,42.2409184 143.582724,43.3894396 145.042615,43.3894396 C146.502505,43.3894396 147.447669,42.2409184 147.447669,40.8409418 M141.717269,40.8409418 C141.717269,38.9442886 143.096324,37.4805822 145.042615,37.4805822 C146.988215,37.4805822 148.366578,38.9442886 148.366578,40.8409418 C148.366578,42.737595 146.988215,44.2019941 145.042615,44.2019941 C143.096324,44.2019941 141.717269,42.737595 141.717269,40.8409418" id="Fill-41" fill="#929494" mask="url(#mask-3)"></path>
                    <polygon id="Fill-42" fill="#929494" mask="url(#mask-3)" points="151.270607 37.6432316 152.558462 37.6432316 154.58628 42.4853082 154.623589 42.4853082 156.632062 37.6432316 157.919225 37.6432316 157.919225 44.0383748 157.054207 44.0383748 157.054207 38.7820548 157.037625 38.7820548 154.883371 44.0383748 154.307844 44.0383748 152.152898 38.7820548 152.135625 38.7820548 152.135625 44.0383748 151.270607 44.0383748"></polygon>
                    <path d="M162.067444,40.4614033 L163.203298,40.4614033 C163.887298,40.4614033 164.571989,40.2993081 164.571989,39.4313364 C164.571989,38.5640574 163.887298,38.4019622 163.203298,38.4019622 L162.067444,38.4019622 L162.067444,40.4614033 Z M161.202425,37.6434394 L163.445807,37.6434394 C165.076353,37.6434394 165.490207,38.6284799 165.490207,39.4313364 C165.490207,40.2355783 165.076353,41.2199261 163.445807,41.2199261 L162.067444,41.2199261 L162.067444,44.0385827 L161.202425,44.0385827 L161.202425,37.6434394 Z" id="Fill-43" fill="#929494" mask="url(#mask-3)"></path>
                    <path d="M171.241542,41.6986613 L170.051796,38.7629359 L170.034524,38.7629359 L168.826815,41.6986613 L171.241542,41.6986613 Z M169.692524,37.6435087 L170.476705,37.6435087 L173.207178,44.0386519 L172.197069,44.0386519 L171.556596,42.4578767 L168.520742,42.4578767 L167.889942,44.0386519 L166.880524,44.0386519 L169.692524,37.6435087 Z" id="Fill-44" fill="#929494" mask="url(#mask-3)"></path>
                    <polygon id="Fill-45" fill="#929494" mask="url(#mask-3)" points="175.755389 37.6432316 176.891244 37.6432316 180.404516 42.9009371 180.421789 42.9009371 180.421789 37.6432316 181.286807 37.6432316 181.286807 44.0383748 180.188262 44.0383748 176.63768 38.7820548 176.620407 38.7820548 176.620407 44.0383748 175.755389 44.0383748"></polygon>
                    <polygon id="Fill-46" fill="#929494" mask="url(#mask-3)" points="186.198618 41.3103946 183.784582 37.6431624 184.891418 37.6431624 186.630436 40.4528137 188.424727 37.6431624 189.477673 37.6431624 187.063636 41.3103946 187.063636 44.0383056 186.198618 44.0383056"></polygon>
                </g>
            </g>
        </g>
    </g>
</svg>
